<svg xmlns="http://www.w3.org/2000/svg" viewBox="0 0 300 92"><path d="M154.4 56.5h-2.8l-2.3-6.1h-9.2l-2.2 6.1h-2.8l8.3-21.7h2.6l8.4 21.7zm-5.9-8.4l-3.4-9.2c-.2-.5-.3-1-.3-1.5h-.1l-.3 1.5-3.4 9.2h7.5zm19.5-6.4l-9.2 12.6h9.1v2.1h-12.7v-.7l9.2-12.6h-8.3V41H168v.7zm15.7 14.8h-2.5V54h-.1a5.1 5.1 0 01-4.8 2.8c-3.7 0-5.5-2.2-5.5-6.6V41h2.5v8.9c0 3.3 1.2 4.9 3.7 4.9 1.1 0 2.2-.5 3-1.3.8-1 1.2-2.2 1.1-3.5v-9h2.5l.1 15.5zm13.1-13c-.6-.4-1.2-.5-1.9-.5-1.1 0-2.1.6-2.6 1.5-.8 1.2-1.1 2.6-1.1 4.1v7.9h-2.5V41h2.4v3.2h.1c.3-1 .8-1.9 1.6-2.5.7-.6 1.5-.9 2.4-.9.5 0 1 0 1.5.2l.1 2.5zm15.1 5.9H201c-.1 1.5.4 2.9 1.4 4 1 1 2.3 1.5 3.7 1.4 1.8 0 3.4-.6 4.8-1.7v2.3c-1.6 1.1-3.5 1.6-5.4 1.5-1.9.1-3.8-.7-5.2-2.1-1.3-1.7-2-3.8-1.9-5.9-.1-2.1.6-4.3 2.1-5.9 1.3-1.5 3.1-2.3 5.1-2.3 1.8-.1 3.5.6 4.7 2 1.2 1.6 1.8 3.5 1.7 5.5l-.1 1.2zm-2.5-2.1c.1-1.2-.3-2.4-1-3.3-.7-.8-1.8-1.2-2.8-1.1-1.1 0-2.2.4-3 1.2-.8.9-1.4 2-1.5 3.3l8.3-.1zm-113 13h28.3l-15.2-26.4-4.7 12.8 9 10.6zm11.9-28.6l-10.9 9.1-9.3 16.1h8.4z" fill="#fff"/></svg>